<mxfile host="app.diagrams.net" modified="2024-03-03T17:49:27.819Z" agent="Mozilla/5.0 (Windows NT 10.0; Win64; x64) AppleWebKit/537.36 (KHTML, like Gecko) Chrome/121.0.0.0 Safari/537.36 OPR/107.0.0.0 (Edition Yx GX 03)" etag="GdDGD9ZXZBtPvd5UCV-4" version="24.0.1" type="google">
  <diagram id="R2lEEEUBdFMjLlhIrx00" name="Page-1">
    <mxGraphModel grid="1" page="1" gridSize="10" guides="1" tooltips="1" connect="1" arrows="1" fold="1" pageScale="1" pageWidth="850" pageHeight="1100" math="0" shadow="0" extFonts="Permanent Marker^https://fonts.googleapis.com/css?family=Permanent+Marker">
      <root>
        <mxCell id="0" />
        <mxCell id="1" parent="0" />
        <mxCell id="lQNsPvtSyj825Nqt7O2x-65" style="edgeStyle=orthogonalEdgeStyle;rounded=0;orthogonalLoop=1;jettySize=auto;html=1;exitX=1;exitY=0.75;exitDx=0;exitDy=0;entryX=1;entryY=0.25;entryDx=0;entryDy=0;" edge="1" parent="1" source="lQNsPvtSyj825Nqt7O2x-11" target="lQNsPvtSyj825Nqt7O2x-19">
          <mxGeometry relative="1" as="geometry" />
        </mxCell>
        <mxCell id="lQNsPvtSyj825Nqt7O2x-11" value="Кафедра" style="swimlane;whiteSpace=wrap;html=1;" vertex="1" parent="1">
          <mxGeometry x="730" y="95" width="200" height="230" as="geometry" />
        </mxCell>
        <mxCell id="lQNsPvtSyj825Nqt7O2x-12" value="Название" style="text;html=1;align=center;verticalAlign=middle;resizable=0;points=[];autosize=1;strokeColor=none;fillColor=none;" vertex="1" parent="lQNsPvtSyj825Nqt7O2x-11">
          <mxGeometry x="10" y="40" width="80" height="30" as="geometry" />
        </mxCell>
        <mxCell id="lQNsPvtSyj825Nqt7O2x-15" value="ФИО заведующего" style="text;html=1;align=center;verticalAlign=middle;resizable=0;points=[];autosize=1;strokeColor=none;fillColor=none;" vertex="1" parent="lQNsPvtSyj825Nqt7O2x-11">
          <mxGeometry x="10" y="98" width="130" height="30" as="geometry" />
        </mxCell>
        <mxCell id="lQNsPvtSyj825Nqt7O2x-16" value="Номер аудитории" style="text;html=1;align=center;verticalAlign=middle;resizable=0;points=[];autosize=1;strokeColor=none;fillColor=none;" vertex="1" parent="lQNsPvtSyj825Nqt7O2x-11">
          <mxGeometry x="10" y="128" width="120" height="30" as="geometry" />
        </mxCell>
        <mxCell id="lQNsPvtSyj825Nqt7O2x-14" value="Факультет" style="text;html=1;align=center;verticalAlign=middle;resizable=0;points=[];autosize=1;strokeColor=none;fillColor=none;" vertex="1" parent="lQNsPvtSyj825Nqt7O2x-11">
          <mxGeometry x="10" y="70" width="80" height="30" as="geometry" />
        </mxCell>
        <mxCell id="lQNsPvtSyj825Nqt7O2x-17" value="Номер корпуса" style="text;html=1;align=center;verticalAlign=middle;resizable=0;points=[];autosize=1;strokeColor=none;fillColor=none;" vertex="1" parent="lQNsPvtSyj825Nqt7O2x-11">
          <mxGeometry x="10" y="158" width="110" height="30" as="geometry" />
        </mxCell>
        <mxCell id="lQNsPvtSyj825Nqt7O2x-18" value="Телефон&amp;nbsp;" style="text;html=1;align=center;verticalAlign=middle;resizable=0;points=[];autosize=1;strokeColor=none;fillColor=none;" vertex="1" parent="lQNsPvtSyj825Nqt7O2x-11">
          <mxGeometry x="10" y="188" width="80" height="30" as="geometry" />
        </mxCell>
        <mxCell id="lQNsPvtSyj825Nqt7O2x-80" style="edgeStyle=orthogonalEdgeStyle;rounded=0;orthogonalLoop=1;jettySize=auto;html=1;exitX=0;exitY=0.25;exitDx=0;exitDy=0;entryX=1;entryY=0.75;entryDx=0;entryDy=0;" edge="1" parent="1" source="lQNsPvtSyj825Nqt7O2x-19" target="lQNsPvtSyj825Nqt7O2x-48">
          <mxGeometry relative="1" as="geometry" />
        </mxCell>
        <mxCell id="lQNsPvtSyj825Nqt7O2x-81" style="edgeStyle=orthogonalEdgeStyle;rounded=0;orthogonalLoop=1;jettySize=auto;html=1;entryX=1;entryY=0.25;entryDx=0;entryDy=0;" edge="1" parent="1" source="lQNsPvtSyj825Nqt7O2x-19" target="lQNsPvtSyj825Nqt7O2x-52">
          <mxGeometry relative="1" as="geometry" />
        </mxCell>
        <mxCell id="lQNsPvtSyj825Nqt7O2x-19" value="Преподаватель" style="swimlane;whiteSpace=wrap;html=1;startSize=23;" vertex="1" parent="1">
          <mxGeometry x="680" y="460" width="200" height="420" as="geometry" />
        </mxCell>
        <mxCell id="lQNsPvtSyj825Nqt7O2x-23" value="Год поступления на работу" style="text;html=1;align=center;verticalAlign=middle;resizable=0;points=[];autosize=1;strokeColor=none;fillColor=none;" vertex="1" parent="lQNsPvtSyj825Nqt7O2x-19">
          <mxGeometry x="20" y="115" width="170" height="30" as="geometry" />
        </mxCell>
        <mxCell id="lQNsPvtSyj825Nqt7O2x-20" value="ФИО" style="text;html=1;align=center;verticalAlign=middle;resizable=0;points=[];autosize=1;strokeColor=none;fillColor=none;" vertex="1" parent="lQNsPvtSyj825Nqt7O2x-19">
          <mxGeometry x="20" y="28" width="50" height="30" as="geometry" />
        </mxCell>
        <mxCell id="lQNsPvtSyj825Nqt7O2x-21" value="Кафедра" style="text;html=1;align=center;verticalAlign=middle;resizable=0;points=[];autosize=1;strokeColor=none;fillColor=none;" vertex="1" parent="lQNsPvtSyj825Nqt7O2x-19">
          <mxGeometry x="20" y="58" width="70" height="30" as="geometry" />
        </mxCell>
        <mxCell id="lQNsPvtSyj825Nqt7O2x-22" value="Дата рождения" style="text;html=1;align=center;verticalAlign=middle;resizable=0;points=[];autosize=1;strokeColor=none;fillColor=none;" vertex="1" parent="lQNsPvtSyj825Nqt7O2x-19">
          <mxGeometry x="15" y="85" width="110" height="30" as="geometry" />
        </mxCell>
        <mxCell id="lQNsPvtSyj825Nqt7O2x-24" value="Стаж на текущей работе" style="text;html=1;align=center;verticalAlign=middle;resizable=0;points=[];autosize=1;strokeColor=none;fillColor=none;" vertex="1" parent="lQNsPvtSyj825Nqt7O2x-19">
          <mxGeometry x="15" y="145" width="160" height="30" as="geometry" />
        </mxCell>
        <mxCell id="lQNsPvtSyj825Nqt7O2x-27" value="Должность" style="text;html=1;align=center;verticalAlign=middle;resizable=0;points=[];autosize=1;strokeColor=none;fillColor=none;" vertex="1" parent="lQNsPvtSyj825Nqt7O2x-19">
          <mxGeometry x="20" y="175" width="80" height="30" as="geometry" />
        </mxCell>
        <mxCell id="lQNsPvtSyj825Nqt7O2x-28" value="Пол" style="text;html=1;align=center;verticalAlign=middle;resizable=0;points=[];autosize=1;strokeColor=none;fillColor=none;" vertex="1" parent="lQNsPvtSyj825Nqt7O2x-19">
          <mxGeometry x="20" y="205" width="50" height="30" as="geometry" />
        </mxCell>
        <mxCell id="lQNsPvtSyj825Nqt7O2x-29" value="Адрес" style="text;html=1;align=center;verticalAlign=middle;resizable=0;points=[];autosize=1;strokeColor=none;fillColor=none;" vertex="1" parent="lQNsPvtSyj825Nqt7O2x-19">
          <mxGeometry x="20" y="235" width="60" height="30" as="geometry" />
        </mxCell>
        <mxCell id="lQNsPvtSyj825Nqt7O2x-30" value="Город" style="text;html=1;align=center;verticalAlign=middle;resizable=0;points=[];autosize=1;strokeColor=none;fillColor=none;" vertex="1" parent="lQNsPvtSyj825Nqt7O2x-19">
          <mxGeometry x="20" y="265" width="60" height="30" as="geometry" />
        </mxCell>
        <mxCell id="lQNsPvtSyj825Nqt7O2x-31" value="Телефон" style="text;html=1;align=center;verticalAlign=middle;resizable=0;points=[];autosize=1;strokeColor=none;fillColor=none;" vertex="1" parent="lQNsPvtSyj825Nqt7O2x-19">
          <mxGeometry x="20" y="295" width="70" height="30" as="geometry" />
        </mxCell>
        <mxCell id="lQNsPvtSyj825Nqt7O2x-32" value="Ставка" style="text;html=1;align=center;verticalAlign=middle;resizable=0;points=[];autosize=1;strokeColor=none;fillColor=none;" vertex="1" parent="lQNsPvtSyj825Nqt7O2x-19">
          <mxGeometry x="20" y="325" width="60" height="30" as="geometry" />
        </mxCell>
        <mxCell id="lQNsPvtSyj825Nqt7O2x-33" value="Рабочие дисциплины" style="text;html=1;align=center;verticalAlign=middle;resizable=0;points=[];autosize=1;strokeColor=none;fillColor=none;" vertex="1" parent="lQNsPvtSyj825Nqt7O2x-19">
          <mxGeometry x="20" y="355" width="140" height="30" as="geometry" />
        </mxCell>
        <mxCell id="lQNsPvtSyj825Nqt7O2x-77" style="edgeStyle=orthogonalEdgeStyle;rounded=0;orthogonalLoop=1;jettySize=auto;html=1;exitX=1;exitY=0.25;exitDx=0;exitDy=0;entryX=0;entryY=0;entryDx=0;entryDy=0;" edge="1" parent="1" source="lQNsPvtSyj825Nqt7O2x-34" target="lQNsPvtSyj825Nqt7O2x-11">
          <mxGeometry relative="1" as="geometry" />
        </mxCell>
        <mxCell id="lQNsPvtSyj825Nqt7O2x-34" value="Студент" style="swimlane;whiteSpace=wrap;html=1;" vertex="1" parent="1">
          <mxGeometry x="160" y="-15" width="240" height="340" as="geometry" />
        </mxCell>
        <mxCell id="lQNsPvtSyj825Nqt7O2x-35" value="Номер студенческого билета" style="text;html=1;align=center;verticalAlign=middle;resizable=0;points=[];autosize=1;strokeColor=none;fillColor=none;" vertex="1" parent="lQNsPvtSyj825Nqt7O2x-34">
          <mxGeometry x="5" y="30" width="190" height="30" as="geometry" />
        </mxCell>
        <mxCell id="lQNsPvtSyj825Nqt7O2x-36" value="ФИО" style="text;html=1;align=center;verticalAlign=middle;resizable=0;points=[];autosize=1;strokeColor=none;fillColor=none;" vertex="1" parent="lQNsPvtSyj825Nqt7O2x-34">
          <mxGeometry x="5" y="60" width="50" height="30" as="geometry" />
        </mxCell>
        <mxCell id="lQNsPvtSyj825Nqt7O2x-37" value="Курс" style="text;html=1;align=center;verticalAlign=middle;resizable=0;points=[];autosize=1;strokeColor=none;fillColor=none;" vertex="1" parent="lQNsPvtSyj825Nqt7O2x-34">
          <mxGeometry x="5" y="90" width="50" height="30" as="geometry" />
        </mxCell>
        <mxCell id="lQNsPvtSyj825Nqt7O2x-38" value="Группа" style="text;html=1;align=center;verticalAlign=middle;resizable=0;points=[];autosize=1;strokeColor=none;fillColor=none;" vertex="1" parent="lQNsPvtSyj825Nqt7O2x-34">
          <mxGeometry x="5" y="120" width="60" height="30" as="geometry" />
        </mxCell>
        <mxCell id="lQNsPvtSyj825Nqt7O2x-39" value="Дата рождения" style="text;html=1;align=center;verticalAlign=middle;resizable=0;points=[];autosize=1;strokeColor=none;fillColor=none;" vertex="1" parent="lQNsPvtSyj825Nqt7O2x-34">
          <mxGeometry x="5" y="150" width="110" height="30" as="geometry" />
        </mxCell>
        <mxCell id="lQNsPvtSyj825Nqt7O2x-40" value="Пол" style="text;html=1;align=center;verticalAlign=middle;resizable=0;points=[];autosize=1;strokeColor=none;fillColor=none;" vertex="1" parent="lQNsPvtSyj825Nqt7O2x-34">
          <mxGeometry x="5" y="180" width="50" height="30" as="geometry" />
        </mxCell>
        <mxCell id="lQNsPvtSyj825Nqt7O2x-42" value="Телефон" style="text;html=1;align=center;verticalAlign=middle;resizable=0;points=[];autosize=1;strokeColor=none;fillColor=none;" vertex="1" parent="lQNsPvtSyj825Nqt7O2x-34">
          <mxGeometry x="5" y="240" width="70" height="30" as="geometry" />
        </mxCell>
        <mxCell id="lQNsPvtSyj825Nqt7O2x-43" value="Форма обучения" style="text;html=1;align=center;verticalAlign=middle;resizable=0;points=[];autosize=1;strokeColor=none;fillColor=none;" vertex="1" parent="lQNsPvtSyj825Nqt7O2x-34">
          <mxGeometry x="5" y="270" width="120" height="30" as="geometry" />
        </mxCell>
        <mxCell id="lQNsPvtSyj825Nqt7O2x-41" value="Адрес" style="text;html=1;align=center;verticalAlign=middle;resizable=0;points=[];autosize=1;strokeColor=none;fillColor=none;" vertex="1" parent="lQNsPvtSyj825Nqt7O2x-34">
          <mxGeometry x="5" y="210" width="60" height="30" as="geometry" />
        </mxCell>
        <mxCell id="lQNsPvtSyj825Nqt7O2x-44" value="Код специальности" style="text;html=1;align=center;verticalAlign=middle;resizable=0;points=[];autosize=1;strokeColor=none;fillColor=none;" vertex="1" parent="lQNsPvtSyj825Nqt7O2x-34">
          <mxGeometry x="5" y="300" width="130" height="30" as="geometry" />
        </mxCell>
        <mxCell id="lQNsPvtSyj825Nqt7O2x-76" style="edgeStyle=orthogonalEdgeStyle;rounded=0;orthogonalLoop=1;jettySize=auto;html=1;exitX=1;exitY=0.25;exitDx=0;exitDy=0;entryX=0;entryY=0.75;entryDx=0;entryDy=0;" edge="1" parent="1" source="lQNsPvtSyj825Nqt7O2x-48" target="lQNsPvtSyj825Nqt7O2x-11">
          <mxGeometry relative="1" as="geometry" />
        </mxCell>
        <mxCell id="lQNsPvtSyj825Nqt7O2x-48" value="Дисциплина" style="swimlane;whiteSpace=wrap;html=1;" vertex="1" parent="1">
          <mxGeometry x="160" y="410" width="200" height="160" as="geometry" />
        </mxCell>
        <mxCell id="lQNsPvtSyj825Nqt7O2x-49" value="Название" style="text;html=1;align=center;verticalAlign=middle;resizable=0;points=[];autosize=1;strokeColor=none;fillColor=none;" vertex="1" parent="lQNsPvtSyj825Nqt7O2x-48">
          <mxGeometry y="40" width="80" height="30" as="geometry" />
        </mxCell>
        <mxCell id="lQNsPvtSyj825Nqt7O2x-50" value="Количество часов" style="text;html=1;align=center;verticalAlign=middle;resizable=0;points=[];autosize=1;strokeColor=none;fillColor=none;" vertex="1" parent="lQNsPvtSyj825Nqt7O2x-48">
          <mxGeometry y="70" width="120" height="30" as="geometry" />
        </mxCell>
        <mxCell id="lQNsPvtSyj825Nqt7O2x-51" value="Вид контроля" style="text;html=1;align=center;verticalAlign=middle;resizable=0;points=[];autosize=1;strokeColor=none;fillColor=none;" vertex="1" parent="lQNsPvtSyj825Nqt7O2x-48">
          <mxGeometry y="100" width="100" height="30" as="geometry" />
        </mxCell>
        <mxCell id="lQNsPvtSyj825Nqt7O2x-52" value="Ведомость" style="swimlane;whiteSpace=wrap;html=1;" vertex="1" parent="1">
          <mxGeometry x="160" y="630" width="200" height="200" as="geometry" />
        </mxCell>
        <mxCell id="lQNsPvtSyj825Nqt7O2x-53" value="ФИО преподователя" style="text;html=1;align=center;verticalAlign=middle;resizable=0;points=[];autosize=1;strokeColor=none;fillColor=none;" vertex="1" parent="lQNsPvtSyj825Nqt7O2x-52">
          <mxGeometry y="40" width="140" height="30" as="geometry" />
        </mxCell>
        <mxCell id="lQNsPvtSyj825Nqt7O2x-54" value="ФИО сутдента" style="text;html=1;align=center;verticalAlign=middle;resizable=0;points=[];autosize=1;strokeColor=none;fillColor=none;" vertex="1" parent="lQNsPvtSyj825Nqt7O2x-52">
          <mxGeometry y="70" width="100" height="30" as="geometry" />
        </mxCell>
        <mxCell id="lQNsPvtSyj825Nqt7O2x-55" value="Оценка" style="text;html=1;align=center;verticalAlign=middle;resizable=0;points=[];autosize=1;strokeColor=none;fillColor=none;" vertex="1" parent="lQNsPvtSyj825Nqt7O2x-52">
          <mxGeometry y="100" width="70" height="30" as="geometry" />
        </mxCell>
        <mxCell id="lQNsPvtSyj825Nqt7O2x-56" value="Дата" style="text;html=1;align=center;verticalAlign=middle;resizable=0;points=[];autosize=1;strokeColor=none;fillColor=none;" vertex="1" parent="lQNsPvtSyj825Nqt7O2x-52">
          <mxGeometry y="130" width="50" height="30" as="geometry" />
        </mxCell>
        <mxCell id="lQNsPvtSyj825Nqt7O2x-69" style="edgeStyle=orthogonalEdgeStyle;rounded=0;orthogonalLoop=1;jettySize=auto;html=1;exitX=0;exitY=0.75;exitDx=0;exitDy=0;entryX=0.004;entryY=0.233;entryDx=0;entryDy=0;entryPerimeter=0;" edge="1" parent="1" source="lQNsPvtSyj825Nqt7O2x-34" target="lQNsPvtSyj825Nqt7O2x-49">
          <mxGeometry relative="1" as="geometry" />
        </mxCell>
      </root>
    </mxGraphModel>
  </diagram>
</mxfile>
